<svg width="170" viewBox="0 0 217 53" fill="none" xmlns="http://www.w3.org/2000/svg">
<path d="M68.608 1.00005C69.098 0.090051 9.767 8.23329 10.677 7.71996C11.6103 7.18329 12.7187 6.91496 14.002 6.91496C15.542 6.91496 16.9303 7.32329 18.167 8.13996C19.4037 8.93329 20.372 10.1 21.072 11.64C21.7953 13.1566 22.157 14.9533 22.157 17.03C22.157 19.1066 21.7953 20.915 21.072 22.455C20.372 23.9716 19.4037 25.1383 18.167 25.955C16.9303 26.7483 15.542 27.145 14.002 27.145C12.7187 27.145 11.6103 26.8883 10.677 26.375C9.767 25.8383 9.067 25.115 8.577 24.205V26.9H0.807V0.99996H8.577L68.608 1.00005ZM14.282 17.03C14.282 15.98 14.0137 15.1633 13.477 14.58C12.9403 13.9966 12.252 13.705 11.412 13.705C10.572 13.705 9.88367 13.9966 9.347 14.58C8.81033 15.1633 8.542 15.98 8.542 17.03C8.542 18.08 8.81033 18.8966 9.347 19.48C9.88367 20.0633 10.572 20.355 11.412 20.355C12.252 20.355 12.9403 20.0633 13.477 19.48C14.0137 18.8966 14.282 18.08 14.282 17.03Z" fill="#323940"/>
<path d="M23.5461 17.03C23.5461 14.9533 23.8961 13.1566 24.5961 11.64C25.3194 10.1 26.2994 8.93329 27.5361 8.13996C28.7727 7.32329 30.1611 6.91496 31.7011 6.91496C32.9844 6.91496 34.0927 7.18329 35.0261 7.71996C35.9594 8.23329 36.6711 8.94496 37.1611 9.85496V7.15996H44.8961V26.9H37.1611V24.205C36.6711 25.115 35.9594 25.8383 35.0261 26.375C34.0927 26.8883 32.9844 27.145 31.7011 27.145C30.1611 27.145 28.7727 26.7483 27.5361 25.955C26.2994 25.1383 25.3194 23.9716 24.5961 22.455C23.8961 20.915 23.5461 19.1066 23.5461 17.03ZM37.1611 17.03C37.1611 15.98 36.8927 15.1633 36.3561 14.58C35.8194 13.9966 35.1311 13.705 34.2911 13.705C33.4511 13.705 32.7627 13.9966 32.2261 14.58C31.6894 15.1633 31.4211 15.98 31.4211 17.03C31.4211 18.08 31.6894 18.8966 32.2261 19.48C32.7627 20.0633 33.4511 20.355 34.2911 20.355C35.1311 20.355 35.8194 20.0633 36.3561 19.48C36.8927 18.8966 37.1611 18.08 37.1611 17.03Z" fill="#323940"/>
<path d="M56.1551 10.8C56.9485 9.65662 57.9168 8.74662 59.0601 8.06996C60.2035 7.36996 61.3935 7.01996 62.6301 7.01996V15.315H60.4251C58.9551 15.315 57.8701 15.5716 57.1701 16.085C56.4935 16.5983 56.1551 17.5083 56.1551 18.815V26.9H48.3851V7.15996H56.1551V10.8Z" fill="#323940"/>
<path d="M72.493 9.85496C72.983 8.94496 73.683 8.23329 74.593 7.71996C75.5264 7.18329 76.6347 6.91496 77.918 6.91496C79.458 6.91496 80.8463 7.32329 82.083 8.13996C83.3197 8.93329 84.288 10.1 84.988 11.64C85.7113 13.1566 86.073 14.9533 86.073 17.03C86.073 19.1066 85.7113 20.915 84.988 22.455C84.288 23.9716 83.3197 25.1383 82.083 25.955C80.8463 26.7483 79.458 27.145 77.918 27.145C76.6347 27.145 75.5264 26.8883 74.593 26.375C73.683 25.8383 72.983 25.115 72.493 24.205V26.9H64.723V0.99996H72.493V9.85496ZM78.198 17.03C78.198 15.98 77.9297 15.1633 77.393 14.58C76.8563 13.9966 76.168 13.705 75.328 13.705C74.488 13.705 73.7997 13.9966 73.263 14.58C72.7263 15.1633 72.458 15.98 72.458 17.03C72.458 18.08 72.7263 18.8966 73.263 19.48C73.7997 20.0633 74.488 20.355 75.328 20.355C76.168 20.355 76.8563 20.0633 77.393 19.48C77.9297 18.8966 78.198 18.08 78.198 17.03Z" fill="#323940"/>
<path d="M107.622 16.855C107.622 17.3916 107.587 17.905 107.517 18.395H95.0221C95.1387 20.0983 95.8504 20.95 97.1571 20.95C97.9971 20.95 98.6037 20.565 98.9771 19.795H107.202C106.922 21.195 106.327 22.455 105.417 23.575C104.53 24.6716 103.399 25.5466 102.022 26.2C100.669 26.83 99.1754 27.145 97.5421 27.145C95.5821 27.145 93.8321 26.7366 92.2921 25.92C90.7754 25.1033 89.5854 23.9366 88.7221 22.42C87.8821 20.88 87.4621 19.0833 87.4621 17.03C87.4621 14.9766 87.8821 13.1916 88.7221 11.675C89.5854 10.135 90.7754 8.95662 92.2921 8.13996C93.8321 7.32329 95.5821 6.91496 97.5421 6.91496C99.5021 6.91496 101.24 7.32329 102.757 8.13996C104.297 8.93329 105.487 10.0766 106.327 11.57C107.19 13.0633 107.622 14.825 107.622 16.855ZM99.7471 15C99.7471 14.3466 99.5371 13.8566 99.1171 13.53C98.6971 13.18 98.1721 13.005 97.5421 13.005C96.1654 13.005 95.3604 13.67 95.1271 15H99.7471Z" fill="#323940"/>
<path d="M117.849 10.8C118.643 9.65662 119.611 8.74662 120.754 8.06996C121.898 7.36996 123.088 7.01996 124.324 7.01996V15.315H122.119C120.649 15.315 119.564 15.5716 118.864 16.085C118.188 16.5983 117.849 17.5083 117.849 18.815V26.9H110.079V7.15996H117.849V10.8Z" fill="#323940"/>
<path d="M135.692 26.9C132.729 26.9 130.279 26.2116 128.342 24.835C126.429 23.435 125.391 21.3933 125.227 18.71H133.487C133.604 20.1333 134.234 20.845 135.377 20.845C135.797 20.845 136.147 20.7516 136.427 20.565C136.731 20.355 136.882 20.04 136.882 19.62C136.882 19.0366 136.567 18.57 135.937 18.22C135.307 17.8466 134.327 17.4266 132.997 16.96C131.411 16.4 130.092 15.8516 129.042 15.315C128.016 14.7783 127.129 13.9966 126.382 12.97C125.636 11.9433 125.274 10.625 125.297 9.01495C125.297 7.40495 125.706 6.03995 126.522 4.91995C127.362 3.77662 128.494 2.91329 129.917 2.32995C131.364 1.74662 132.986 1.45495 134.782 1.45495C137.816 1.45495 140.219 2.15495 141.992 3.55495C143.789 4.95495 144.734 6.92662 144.827 9.46995H136.462C136.439 8.76995 136.264 8.26828 135.937 7.96495C135.611 7.66162 135.214 7.50995 134.747 7.50995C134.421 7.50995 134.152 7.62662 133.942 7.85995C133.732 8.06995 133.627 8.37329 133.627 8.76995C133.627 9.32995 133.931 9.79662 134.537 10.17C135.167 10.52 136.159 10.9516 137.512 11.465C139.076 12.0483 140.359 12.6083 141.362 13.145C158.442 4.91995 143.276 14.4283 144.022 15.385C144.769 16.3416 145.142 17.5433 145.142 18.99C145.142 20.5066 144.769 21.8716 144.022 23.085C143.276 24.275 142.191 25.2083 140.767 25.885C139.344 26.5616 137.652 26.9 135.692 26.9Z" fill="#323940"/>
<path d="M162.117 7.01996C164.381 7.01996 166.142 7.77829 167.402 9.29496C168.686 10.8116 169.327 12.865 169.327 15.455V26.9H161.592V16.435C161.592 15.5016 161.336 14.7666 160.822 14.23C160.332 13.67 159.667 13.39 158.827 13.39C157.964 13.39 157.287 13.67 156.797 14.23C156.307 14.7666 156.062 15.5016 156.062 16.435V26.9H148.292V0.99996H156.062V10.17C156.669 9.23662 157.474 8.47829 158.477 7.89496C159.504 7.31162 160.717 7.01996 162.117 7.01996Z" fill="#323940"/>
<path d="M182.077 27.145C180.093 27.145 178.308 26.7366 176.722 25.92C175.135 25.1033 173.887 23.9366 172.977 22.42C172.09 20.88 171.647 19.0833 171.647 17.03C171.647 14.9766 172.09 13.1916 172.977 11.675C173.887 10.135 175.135 8.95662 176.722 8.13996C178.308 7.32329 180.093 6.91496 182.077 6.91496C184.06 6.91496 185.845 7.32329 187.432 8.13996C189.018 8.95662 190.255 10.135 191.142 11.675C192.052 13.1916 192.507 14.9766 192.507 17.03C192.507 19.0833 192.052 20.88 191.142 22.42C190.255 23.9366 189.018 25.1033 187.432 25.92C185.845 26.7366 184.06 27.145 182.077 27.145ZM182.077 20.425C182.8 20.425 183.407 20.145 183.897 19.585C184.387 19.0016 184.632 18.15 184.632 17.03C184.632 15.91 184.387 15.07 183.897 14.51C183.407 13.9266 182.8 13.635 182.077 13.635C181.353 13.635 180.747 13.9266 180.257 14.51C179.767 15.07 179.522 15.91 179.522 17.03C179.522 18.15 179.755 19.0016 180.222 19.585C180.712 20.145 181.33 20.425 182.077 20.425Z" fill="#323940"/>
<path d="M202.718 9.85496C203.208 8.94496 203.908 8.23329 204.818 7.71996C205.751 7.18329 206.859 6.91496 208.143 6.91496C209.683 6.91496 211.071 7.32329 212.308 8.13996C213.544 8.93329 214.513 10.1 215.213 11.64C215.936 13.1566 216.298 14.9533 216.298 17.03C216.298 19.1066 215.936 20.915 215.213 22.455C214.513 23.9716 213.544 25.1383 212.308 25.955C211.071 26.7483 209.683 27.145 208.143 27.145C206.859 27.145 205.751 26.8883 204.818 26.375C203.908 25.8383 203.208 25.115 202.718 24.205V36.35H194.948V7.15996H202.718V9.85496ZM208.423 17.03C208.423 15.98 208.154 15.1633 207.618 14.58C207.081 13.9966 206.393 13.705 205.553 13.705C204.713 13.705 204.024 13.9966 203.488 14.58C202.951 15.1633 202.683 15.98 202.683 17.03C202.683 18.08 202.951 18.8966 203.488 19.48C204.024 20.0633 204.713 20.355 205.553 20.355C206.393 20.355 207.081 20.0633 207.618 19.48C208.154 18.8966 208.423 18.08 208.423 17.03Z" fill="#323940"/>
<path d="M1.173 52.015C0.835667 52.015 0.552 51.9 0.322 51.67C0.107333 51.44 0 51.1563 0 50.819C0 50.4816 0.107333 50.2056 0.322 49.991C0.552 49.761 0.835667 49.646 1.173 49.646C1.495 49.646 1.76333 49.761 1.978 49.991C2.208 50.2056 2.323 50.4816 2.323 50.819C2.323 51.1563 2.208 51.44 1.978 51.67C1.76333 51.9 1.495 52.015 1.173 52.015Z" fill="#323940"/>
<path d="M4.33873 45.621C4.33873 44.3176 4.5994 43.183 5.12073 42.217C5.64207 41.2356 6.36273 40.4843 7.28273 39.963C8.20273 39.4263 9.25307 39.158 10.4337 39.158C11.9824 39.158 13.2551 39.5413 14.2517 40.308C15.2637 41.0746 15.9154 42.1173 16.2067 43.436H14.4817C14.2671 42.5313 13.7994 41.826 13.0787 41.32C12.3734 40.7986 11.4917 40.538 10.4337 40.538C9.5904 40.538 8.8314 40.7296 8.15673 41.113C7.48207 41.4963 6.9454 42.0713 6.54673 42.838C6.1634 43.5893 5.97173 44.517 5.97173 45.621C5.97173 46.725 6.1634 47.6603 6.54673 48.427C6.9454 49.1936 7.48207 49.7686 8.15673 50.152C8.8314 50.5353 9.5904 50.727 10.4337 50.727C11.4917 50.727 12.3734 50.474 13.0787 49.968C13.7994 49.4466 14.2671 48.726 14.4817 47.806H16.2067C15.9154 49.094 15.2637 50.129 14.2517 50.911C13.2397 51.693 11.9671 52.084 10.4337 52.084C9.25307 52.084 8.20273 51.8233 7.28273 51.302C6.36273 50.7653 5.64207 50.014 5.12073 49.048C4.5994 48.0666 4.33873 46.9243 4.33873 45.621Z" fill="#323940"/>
<path d="M24.6772 52.084C23.4965 52.084 22.4309 51.8233 21.4802 51.302C20.5449 50.7653 19.8012 50.014 19.2492 49.048C18.7125 48.0666 18.4442 46.9243 18.4442 45.621C18.4442 44.3176 18.7202 43.183 19.2722 42.217C19.8242 41.2356 20.5755 40.4843 21.5262 39.963C22.4769 39.4263 23.5425 39.158 24.7232 39.158C25.9039 39.158 26.9695 39.4263 27.9202 39.963C28.8862 40.4843 29.6375 41.2356 30.1742 42.217C30.7262 43.183 31.0022 44.3176 31.0022 45.621C31.0022 46.909 30.7262 48.0436 30.1742 49.025C29.6222 50.0063 28.8632 50.7653 27.8972 51.302C26.9312 51.8233 25.8579 52.084 24.6772 52.084ZM24.6772 50.681C25.5052 50.681 26.2719 50.497 26.9772 50.129C27.6825 49.7456 28.2499 49.1783 28.6792 48.427C29.1239 47.6603 29.3462 46.725 29.3462 45.621C29.3462 44.517 29.1315 43.5893 28.7022 42.838C28.2729 42.0713 27.7055 41.504 27.0002 41.136C26.2949 40.7526 25.5282 40.561 24.7002 40.561C23.8722 40.561 23.1055 40.7526 22.4002 41.136C21.6949 41.504 21.1275 42.0713 20.6982 42.838C20.2842 43.5893 20.0772 44.517 20.0772 45.621C20.0772 46.725 20.2842 47.6603 20.6982 48.427C21.1275 49.1783 21.6872 49.7456 22.3772 50.129C23.0825 50.497 23.8492 50.681 24.6772 50.681Z" fill="#323940"/>
<path d="M48.887 39.112C50.359 39.112 51.555 39.5796 52.475 40.515C53.4104 41.435 53.878 42.7766 53.878 44.54V51.9H52.291V44.724C52.291 43.3593 51.9614 42.3166 51.302 41.596C50.6427 40.8753 49.7457 40.515 48.611 40.515C47.4304 40.515 46.4874 40.906 45.782 41.688C45.0767 42.47 44.724 43.6046 44.724 45.092V51.9H43.137V44.724C43.137 43.3593 42.8074 42.3166 42.148 41.596C41.4887 40.8753 40.584 40.515 39.434 40.515C38.2534 40.515 37.3104 40.906 36.605 41.688C35.8997 42.47 35.547 43.6046 35.547 45.092V51.9H33.937V39.342H35.547V41.504C35.9457 40.722 36.513 40.1316 37.249 39.733C37.985 39.319 38.8054 39.112 39.71 39.112C40.7987 39.112 41.7494 39.3726 42.562 39.894C43.39 40.4153 43.988 41.182 44.356 42.194C44.6934 41.1973 45.2684 40.4383 46.081 39.917C46.909 39.3803 47.8444 39.112 48.887 39.112Z" fill="#323940"/>
</svg>
