<svg width="64" height="86" viewBox="0 0 64 86" fill="none" xmlns="http://www.w3.org/2000/svg">
<g clip-path="url(#clip0_111_88)">
<path d="M0 43L4.75 4.70312C5.08333 2.01562 7.35 0 10.05 0H38.15C40.65 0 42.6667 2.03242 42.6667 4.55195C42.6667 5.08945 42.5667 5.64375 42.3833 6.14766L34.6667 26.875H57.8833C61.25 26.875 64 29.6297 64 33.0395C64 34.2824 63.6333 35.4918 62.9333 36.5164L30.9 83.7156C29.9167 85.1602 28.3 86.0168 26.5833 86.0168H26.1C23.4833 86.0168 21.35 83.8668 21.35 81.2297C21.35 80.8434 21.4 80.457 21.5 80.0707L29.3333 48.375H5.33333C2.38333 48.375 0 45.973 0 43Z" fill="#98E9DB"/>
</g>
<defs>
<clipPath id="clip0_111_88">
<rect width="64" height="86" fill="white"/>
</clipPath>
</defs>
</svg>
