<svg width="71" height="77" viewBox="0 0 71 77" fill="none" xmlns="http://www.w3.org/2000/svg">
<path d="M30.6954 22.5145C28.4908 14.2868 20.0501 9.39401 11.8511 11.5909C3.65204 13.7879 -1.2114 22.2455 0.993186 30.4731C3.19777 38.7008 11.6385 43.5936 19.8375 41.3967C20.4563 41.2308 21.0668 41.034 21.6493 40.7947L32.8343 53.4544C30.9663 56.8167 30.3659 60.8876 31.4432 64.9083C33.6478 73.1359 42.0885 78.0287 50.2875 75.8318C58.4866 73.6349 63.35 65.1772 61.1454 56.9496C60.0681 52.9289 57.5127 49.7037 54.2137 47.7258L57.5704 31.1697C58.1946 31.0856 58.8062 30.955 59.4405 30.7851C67.6395 28.5881 72.5029 20.1305 70.2984 11.9029C68.0938 3.67526 59.6531 -1.21757 51.454 0.979361C43.255 3.17629 38.3916 11.6339 40.5961 19.8616C41.6735 23.8822 44.2289 27.1075 47.5278 29.0854L44.1712 45.6415C43.547 45.7255 42.9354 45.8561 42.3011 46.0261C41.6669 46.196 41.0719 46.3888 40.4893 46.628L29.3043 33.9684C31.1723 30.606 31.7727 26.5351 30.6954 22.5145Z" fill="#1ED6B5" fill-opacity="0.41"/>
</svg>
