<svg width="59" height="79" viewBox="0 0 59 79" fill="none" xmlns="http://www.w3.org/2000/svg">
<path d="M4.91667 0C2.19714 0 0 2.20645 0 4.9375C0 7.66855 2.19714 9.875 4.91667 9.875V11.5723C4.91667 18.1145 7.51328 24.3943 12.1227 29.0232L22.5398 39.5L12.1227 49.9768C7.51328 54.6057 4.91667 60.8855 4.91667 67.4277V69.125C2.19714 69.125 0 71.3314 0 74.0625C0 76.7936 2.19714 79 4.91667 79H9.83333H49.1667H54.0833C56.8029 79 59 76.7936 59 74.0625C59 71.3314 56.8029 69.125 54.0833 69.125V67.4277C54.0833 60.8855 51.4867 54.6057 46.8773 49.9768L36.4602 39.5L46.8927 29.0232C51.5021 24.3943 54.0987 18.1145 54.0987 11.5723V9.875C56.8182 9.875 59.0154 7.66855 59.0154 4.9375C59.0154 2.20645 56.8182 0 54.0987 0H49.1667H9.83333H4.91667ZM14.75 11.5723V9.875H44.25V11.5723C44.25 15.5068 42.6982 19.2717 39.9325 22.049L29.5 32.5103L19.0674 22.0336C16.3018 19.2717 14.75 15.4914 14.75 11.5723Z" fill="#98E9DB"/>
</svg>
